<?xml version="1.0" encoding="UTF-8"?>
<svg xmlns="http://www.w3.org/2000/svg" xmlns:xlink="http://www.w3.org/1999/xlink" width="128.784pt" height="65.281pt" viewBox="0 0 128.784 65.281" version="1.1">
<defs>
<clipPath id="clip1">
  <path d="M 17 40 L 48 40 L 48 65.28125 L 17 65.28125 Z M 17 40 "/>
</clipPath>
<clipPath id="clip2">
  <path d="M 62 40 L 94 40 L 94 65.28125 L 62 65.28125 Z M 62 40 "/>
</clipPath>
<clipPath id="clip3">
  <path d="M 103 40 L 128.785156 40 L 128.785156 65.28125 L 103 65.28125 Z M 103 40 "/>
</clipPath>
<clipPath id="clip4">
  <path d="M 103 17 L 128.785156 17 L 128.785156 48 L 103 48 Z M 103 17 "/>
</clipPath>
<clipPath id="clip5">
  <path d="M 0 0 L 82 0 L 82 65.28125 L 0 65.28125 Z M 0 0 "/>
</clipPath>
<clipPath id="clip6">
  <path d="M 51 0 L 128.785156 0 L 128.785156 65.28125 L 51 65.28125 Z M 51 0 "/>
</clipPath>
</defs>
<g id="surface1">
<path style="fill-rule:nonzero;fill:rgb(91.999817%,93.998718%,97.999573%);fill-opacity:1;stroke-width:0.79701;stroke-linecap:butt;stroke-linejoin:miter;stroke:rgb(19.999695%,39.99939%,79.998779%);stroke-opacity:1;stroke-miterlimit:10;" d="M 3.984312 0.000375 C 3.984312 2.199594 2.199156 3.98475 -0.0000625 3.98475 C -2.199281 3.98475 -3.984438 2.199594 -3.984438 0.000375 C -3.984438 -2.198844 -2.199281 -3.984 -0.0000625 -3.984 C 2.199156 -3.984 3.984312 -2.198844 3.984312 0.000375 Z M 3.984312 0.000375 " transform="matrix(1,0,0,-1,9.961,32.641)"/>
<path style=" stroke:none;fill-rule:nonzero;fill:rgb(91.999817%,93.998718%,97.999573%);fill-opacity:1;" d="M 36.621094 55.320312 C 36.621094 53.117188 34.839844 51.335938 32.636719 51.335938 C 30.4375 51.335938 28.65625 53.117188 28.65625 55.320312 C 28.65625 57.519531 30.4375 59.300781 32.636719 59.300781 C 34.839844 59.300781 36.621094 57.519531 36.621094 55.320312 Z M 36.621094 55.320312 "/>
<g clip-path="url(#clip1)" clip-rule="nonzero">
<path style="fill:none;stroke-width:0.79701;stroke-linecap:butt;stroke-linejoin:miter;stroke:rgb(19.999695%,39.99939%,79.998779%);stroke-opacity:1;stroke-miterlimit:10;" d="M 26.660094 -22.679312 C 26.660094 -20.476187 24.878844 -18.694937 22.675719 -18.694937 C 20.4765 -18.694937 18.69525 -20.476187 18.69525 -22.679312 C 18.69525 -24.878531 20.4765 -26.659781 22.675719 -26.659781 C 24.878844 -26.659781 26.660094 -24.878531 26.660094 -22.679312 Z M 26.660094 -22.679312 " transform="matrix(1,0,0,-1,9.961,32.641)"/>
</g>
<path style="fill-rule:nonzero;fill:rgb(91.999817%,93.998718%,97.999573%);fill-opacity:1;stroke-width:0.79701;stroke-linecap:butt;stroke-linejoin:miter;stroke:rgb(19.999695%,39.99939%,79.998779%);stroke-opacity:1;stroke-miterlimit:10;" d="M 49.339781 0.000375 C 49.339781 2.199594 47.554625 3.98475 45.355406 3.98475 C 43.156188 3.98475 41.371031 2.199594 41.371031 0.000375 C 41.371031 -2.198844 43.156188 -3.984 45.355406 -3.984 C 47.554625 -3.984 49.339781 -2.198844 49.339781 0.000375 Z M 49.339781 0.000375 " transform="matrix(1,0,0,-1,9.961,32.641)"/>
<path style="fill-rule:nonzero;fill:rgb(91.999817%,93.998718%,97.999573%);fill-opacity:1;stroke-width:0.79701;stroke-linecap:butt;stroke-linejoin:miter;stroke:rgb(19.999695%,39.99939%,79.998779%);stroke-opacity:1;stroke-miterlimit:10;" d="M 26.660094 22.676156 C 26.660094 24.879281 24.878844 26.660531 22.675719 26.660531 C 20.4765 26.660531 18.69525 24.879281 18.69525 22.676156 C 18.69525 20.476938 20.4765 18.691781 22.675719 18.691781 C 24.878844 18.691781 26.660094 20.476938 26.660094 22.676156 Z M 26.660094 22.676156 " transform="matrix(1,0,0,-1,9.961,32.641)"/>
<path style="fill:none;stroke-width:0.79701;stroke-linecap:butt;stroke-linejoin:miter;stroke:rgb(0%,0%,0%);stroke-opacity:1;stroke-miterlimit:10;" d="M 4.38275 0.000375 L 40.9765 0.000375 " transform="matrix(1,0,0,-1,9.961,32.641)"/>
<path style="fill-rule:nonzero;fill:rgb(29.998779%,29.998779%,59.999084%);fill-opacity:1;stroke-width:1.59404;stroke-linecap:butt;stroke-linejoin:round;stroke:rgb(29.998779%,29.998779%,59.999084%);stroke-opacity:1;stroke-miterlimit:10;" d="M 1.512539 0.000375 C -0.378086 0.379281 -2.272618 1.137094 -4.542149 2.461313 C -2.272618 0.758188 -2.272618 -0.757437 -4.542149 -2.460562 C -2.272618 -1.136344 -0.378086 -0.378531 1.512539 0.000375 Z M 1.512539 0.000375 " transform="matrix(1,0,0,-1,48.62418,32.641)"/>
<path style="fill:none;stroke-width:0.79701;stroke-linecap:butt;stroke-linejoin:miter;stroke:rgb(0%,0%,0%);stroke-opacity:1;stroke-miterlimit:10;" d="M 3.097594 3.098031 L 19.578063 19.5785 " transform="matrix(1,0,0,-1,9.961,32.641)"/>
<path style="fill-rule:nonzero;fill:rgb(29.998779%,29.998779%,59.999084%);fill-opacity:1;stroke-width:1.59404;stroke-linecap:butt;stroke-linejoin:round;stroke:rgb(29.998779%,29.998779%,59.999084%);stroke-opacity:1;stroke-miterlimit:10;" d="M 1.514064 -0.00217361 C -0.38079 0.379021 -2.270117 1.135872 -4.543384 2.458973 C -2.272882 0.757453 -2.272893 -0.756222 -4.540656 -2.460473 C -2.270134 -1.134641 -0.378034 -0.380579 1.514064 -0.00217361 Z M 1.514064 -0.00217361 " transform="matrix(0.70709,-0.7071,-0.7071,-0.70709,27.90054,14.70187)"/>
<path style="fill:none;stroke-width:0.79701;stroke-linecap:butt;stroke-linejoin:miter;stroke:rgb(0%,0%,0%);stroke-opacity:1;stroke-miterlimit:10;" d="M 19.578063 -19.57775 L 3.097594 -3.097281 " transform="matrix(1,0,0,-1,9.961,32.641)"/>
<path style="fill-rule:nonzero;fill:rgb(29.998779%,29.998779%,59.999084%);fill-opacity:1;stroke-width:1.59404;stroke-linecap:butt;stroke-linejoin:round;stroke:rgb(29.998779%,29.998779%,59.999084%);stroke-opacity:1;stroke-miterlimit:10;" d="M 1.515532 -0.00069817 C -0.379328 0.38047 -2.271428 1.134532 -4.54195 2.460363 C -2.271425 0.758875 -2.271414 -0.754801 -4.541916 -2.461845 C -2.271411 -1.135982 -0.37656 -0.37913 1.515532 -0.00069817 Z M 1.515532 -0.00069817 " transform="matrix(-0.70709,-0.7071,-0.7071,0.70709,14.70003,37.38072)"/>
<path style="fill:none;stroke-width:0.79701;stroke-linecap:butt;stroke-linejoin:miter;stroke:rgb(0%,0%,0%);stroke-opacity:1;stroke-miterlimit:10;" d="M 42.242125 -3.112906 L 25.792906 -19.566031 " transform="matrix(1,0,0,-1,9.961,32.641)"/>
<path style="fill-rule:nonzero;fill:rgb(29.998779%,29.998779%,59.999084%);fill-opacity:1;stroke-width:1.59404;stroke-linecap:butt;stroke-linejoin:round;stroke:rgb(29.998779%,29.998779%,59.999084%);stroke-opacity:1;stroke-miterlimit:10;" d="M 1.513161 0.000426132 C -0.378936 0.378832 -2.273798 1.135656 -4.544321 2.461487 C -2.271033 0.757237 -2.271023 -0.756438 -4.544286 -2.460721 C -2.27102 -1.13762 -0.378931 -0.378006 1.513161 0.000426132 Z M 1.513161 0.000426132 " transform="matrix(-0.7071,0.70709,0.70709,0.7071,37.39778,50.56257)"/>
<path style="fill:none;stroke-width:0.79701;stroke-linecap:butt;stroke-linejoin:miter;stroke:rgb(0%,0%,0%);stroke-opacity:1;stroke-miterlimit:10;" d="M 25.792906 19.562875 L 42.242125 3.113656 " transform="matrix(1,0,0,-1,9.961,32.641)"/>
<path style="fill-rule:nonzero;fill:rgb(29.998779%,29.998779%,59.999084%);fill-opacity:1;stroke-width:1.59404;stroke-linecap:butt;stroke-linejoin:round;stroke:rgb(29.998779%,29.998779%,59.999084%);stroke-opacity:1;stroke-miterlimit:10;" d="M 1.514307 0.000822126 C -0.37779 0.379228 -2.272653 1.136052 -4.543176 2.461883 C -2.269888 0.757633 -2.269877 -0.756042 -4.543141 -2.460325 C -2.272637 -1.134461 -0.377785 -0.37761 1.514307 0.000822126 Z M 1.514307 0.000822126 " transform="matrix(0.70709,0.7071,0.7071,-0.70709,50.56148,27.88294)"/>
<path style="fill-rule:nonzero;fill:rgb(91.999817%,93.998718%,97.999573%);fill-opacity:1;stroke-width:0.79701;stroke-linecap:butt;stroke-linejoin:miter;stroke:rgb(19.999695%,39.99939%,79.998779%);stroke-opacity:1;stroke-miterlimit:10;" d="M 90.160094 0.000375 C 90.160094 2.199594 88.374938 3.98475 86.175719 3.98475 C 83.972594 3.98475 82.191344 2.199594 82.191344 0.000375 C 82.191344 -2.198844 83.972594 -3.984 86.175719 -3.984 C 88.374938 -3.984 90.160094 -2.198844 90.160094 0.000375 Z M 90.160094 0.000375 " transform="matrix(1,0,0,-1,9.961,32.641)"/>
<path style=" stroke:none;fill-rule:nonzero;fill:rgb(91.999817%,93.998718%,97.999573%);fill-opacity:1;" d="M 81.976562 55.320312 C 81.976562 53.117188 80.195312 51.335938 77.992188 51.335938 C 75.792969 51.335938 74.007812 53.117188 74.007812 55.320312 C 74.007812 57.519531 75.792969 59.300781 77.992188 59.300781 C 80.195312 59.300781 81.976562 57.519531 81.976562 55.320312 Z M 81.976562 55.320312 "/>
<g clip-path="url(#clip2)" clip-rule="nonzero">
<path style="fill:none;stroke-width:0.79701;stroke-linecap:butt;stroke-linejoin:miter;stroke:rgb(19.999695%,39.99939%,79.998779%);stroke-opacity:1;stroke-miterlimit:10;" d="M 72.015563 -22.679312 C 72.015563 -20.476187 70.234313 -18.694937 68.031188 -18.694937 C 65.831969 -18.694937 64.046813 -20.476187 64.046813 -22.679312 C 64.046813 -24.878531 65.831969 -26.659781 68.031188 -26.659781 C 70.234313 -26.659781 72.015563 -24.878531 72.015563 -22.679312 Z M 72.015563 -22.679312 " transform="matrix(1,0,0,-1,9.961,32.641)"/>
</g>
<path style=" stroke:none;fill-rule:nonzero;fill:rgb(91.999817%,93.998718%,97.999573%);fill-opacity:1;" d="M 122.796875 55.320312 C 122.796875 53.117188 121.011719 51.335938 118.8125 51.335938 C 116.613281 51.335938 114.828125 53.117188 114.828125 55.320312 C 114.828125 57.519531 116.613281 59.300781 118.8125 59.300781 C 121.011719 59.300781 122.796875 57.519531 122.796875 55.320312 Z M 122.796875 55.320312 "/>
<g clip-path="url(#clip3)" clip-rule="nonzero">
<path style="fill:none;stroke-width:0.79701;stroke-linecap:butt;stroke-linejoin:miter;stroke:rgb(19.999695%,39.99939%,79.998779%);stroke-opacity:1;stroke-miterlimit:10;" d="M 112.835875 -22.679312 C 112.835875 -20.476187 111.050719 -18.694937 108.8515 -18.694937 C 106.652281 -18.694937 104.867125 -20.476187 104.867125 -22.679312 C 104.867125 -24.878531 106.652281 -26.659781 108.8515 -26.659781 C 111.050719 -26.659781 112.835875 -24.878531 112.835875 -22.679312 Z M 112.835875 -22.679312 " transform="matrix(1,0,0,-1,9.961,32.641)"/>
</g>
<path style=" stroke:none;fill-rule:nonzero;fill:rgb(91.999817%,93.998718%,97.999573%);fill-opacity:1;" d="M 122.796875 32.640625 C 122.796875 30.441406 121.011719 28.65625 118.8125 28.65625 C 116.613281 28.65625 114.828125 30.441406 114.828125 32.640625 C 114.828125 34.839844 116.613281 36.625 118.8125 36.625 C 121.011719 36.625 122.796875 34.839844 122.796875 32.640625 Z M 122.796875 32.640625 "/>
<g clip-path="url(#clip4)" clip-rule="nonzero">
<path style="fill:none;stroke-width:0.79701;stroke-linecap:butt;stroke-linejoin:miter;stroke:rgb(19.999695%,39.99939%,79.998779%);stroke-opacity:1;stroke-miterlimit:10;" d="M 112.835875 0.000375 C 112.835875 2.199594 111.050719 3.98475 108.8515 3.98475 C 106.652281 3.98475 104.867125 2.199594 104.867125 0.000375 C 104.867125 -2.198844 106.652281 -3.984 108.8515 -3.984 C 111.050719 -3.984 112.835875 -2.198844 112.835875 0.000375 Z M 112.835875 0.000375 " transform="matrix(1,0,0,-1,9.961,32.641)"/>
</g>
<path style="fill-rule:nonzero;fill:rgb(91.999817%,93.998718%,97.999573%);fill-opacity:1;stroke-width:0.79701;stroke-linecap:butt;stroke-linejoin:miter;stroke:rgb(19.999695%,39.99939%,79.998779%);stroke-opacity:1;stroke-miterlimit:10;" d="M 90.160094 22.676156 C 90.160094 24.879281 88.374938 26.660531 86.175719 26.660531 C 83.972594 26.660531 82.191344 24.879281 82.191344 22.676156 C 82.191344 20.476938 83.972594 18.691781 86.175719 18.691781 C 88.374938 18.691781 90.160094 20.476938 90.160094 22.676156 Z M 90.160094 22.676156 " transform="matrix(1,0,0,-1,9.961,32.641)"/>
<path style="fill:none;stroke-width:0.79701;stroke-linecap:butt;stroke-linejoin:miter;stroke:rgb(0%,0%,0%);stroke-opacity:1;stroke-miterlimit:10;" d="M 83.429625 -3.441031 L 70.773375 -19.257437 " transform="matrix(1,0,0,-1,9.961,32.641)"/>
<path style="fill-rule:nonzero;fill:rgb(29.998779%,29.998779%,59.999084%);fill-opacity:1;stroke-width:1.59404;stroke-linecap:butt;stroke-linejoin:round;stroke:rgb(29.998779%,29.998779%,59.999084%);stroke-opacity:1;stroke-miterlimit:10;" d="M 1.514458 -0.0021996 C -0.380484 0.377881 -2.272377 1.135607 -4.543137 2.460716 C -2.269935 0.757351 -2.271151 -0.754453 -4.542512 -2.461493 C -2.271759 -1.135149 -0.378651 -0.381072 1.514458 -0.0021996 Z M 1.514458 -0.0021996 " transform="matrix(-0.62466,0.78082,0.78082,0.62466,82.18602,50.08448)"/>
<path style="fill:none;stroke-width:0.79701;stroke-linecap:butt;stroke-linejoin:miter;stroke:rgb(0%,0%,0%);stroke-opacity:1;stroke-miterlimit:10;" d="M 90.562438 0.000375 L 104.4765 0.000375 " transform="matrix(1,0,0,-1,9.961,32.641)"/>
<path style="fill-rule:nonzero;fill:rgb(29.998779%,29.998779%,59.999084%);fill-opacity:1;stroke-width:1.59404;stroke-linecap:butt;stroke-linejoin:round;stroke:rgb(29.998779%,29.998779%,59.999084%);stroke-opacity:1;stroke-miterlimit:10;" d="M 1.515945 0.000375 C -0.378586 0.379281 -2.273117 1.137094 -4.542649 2.461313 C -2.273117 0.758188 -2.273117 -0.757437 -4.542649 -2.460562 C -2.273117 -1.136344 -0.378586 -0.378531 1.515945 0.000375 Z M 1.515945 0.000375 " transform="matrix(1,0,0,-1,112.12468,32.641)"/>
<path style="fill:none;stroke-width:0.79701;stroke-linecap:butt;stroke-linejoin:miter;stroke:rgb(0%,0%,0%);stroke-opacity:1;stroke-miterlimit:10;" d="M 108.859313 -18.2965 L 108.859313 -4.382437 " transform="matrix(1,0,0,-1,9.961,32.641)"/>
<path style="fill-rule:nonzero;fill:rgb(29.998779%,29.998779%,59.999084%);fill-opacity:1;stroke-width:1.59404;stroke-linecap:butt;stroke-linejoin:round;stroke:rgb(29.998779%,29.998779%,59.999084%);stroke-opacity:1;stroke-miterlimit:10;" d="M 1.514718 -0.0000427952 C -0.379844 0.378909 -2.270491 1.136774 -4.543948 2.461065 C -2.270499 0.757861 -2.270529 -0.757795 -4.544046 -2.460908 C -2.270537 -1.136709 -0.379859 -0.378919 1.514718 -0.0000427952 Z M 1.514718 -0.0000427952 " transform="matrix(-0.00002,-0.99998,-0.99998,0.00002,118.8203,39.335)"/>
<path style="fill:none;stroke-width:0.79701;stroke-linecap:butt;stroke-linejoin:miter;stroke:rgb(0%,0%,0%);stroke-opacity:1;stroke-miterlimit:10;" d="M 105.742125 3.113656 L 89.292906 19.562875 " transform="matrix(1,0,0,-1,9.961,32.641)"/>
<path style="fill-rule:nonzero;fill:rgb(29.998779%,29.998779%,59.999084%);fill-opacity:1;stroke-width:1.59404;stroke-linecap:butt;stroke-linejoin:round;stroke:rgb(29.998779%,29.998779%,59.999084%);stroke-opacity:1;stroke-miterlimit:10;" d="M 1.513161 0.0000264239 C -0.378931 0.378459 -2.273782 1.13531 -4.544286 2.461173 C -2.271023 0.756891 -2.271033 -0.756785 -4.544321 -2.461035 C -2.271036 -1.137966 -0.378936 -0.378379 1.513161 0.0000264239 Z M 1.513161 0.0000264239 " transform="matrix(-0.7071,-0.70709,-0.70709,0.7071,100.8981,14.71836)"/>
<path style="fill:none;stroke-width:0.79701;stroke-linecap:butt;stroke-linejoin:miter;stroke:rgb(0%,0%,0%);stroke-opacity:1;stroke-miterlimit:10;" d="M 86.179625 18.29725 L 86.179625 4.383188 " transform="matrix(1,0,0,-1,9.961,32.641)"/>
<path style="fill-rule:nonzero;fill:rgb(29.998779%,29.998779%,59.999084%);fill-opacity:1;stroke-width:1.59404;stroke-linecap:butt;stroke-linejoin:round;stroke:rgb(29.998779%,29.998779%,59.999084%);stroke-opacity:1;stroke-miterlimit:10;" d="M 1.513968 -0.000564732 C -0.376703 0.378311 -2.271287 1.136101 -4.544796 2.460301 C -2.271279 0.757187 -2.271249 -0.758468 -4.544698 -2.461673 C -2.271241 -1.137382 -0.376687 -0.379516 1.513968 -0.000564732 Z M 1.513968 -0.000564732 " transform="matrix(-0.00002,0.99998,0.99998,0.00002,96.14122,25.947)"/>
<path style="fill:none;stroke-width:0.79701;stroke-linecap:butt;stroke-linejoin:miter;stroke:rgb(59.999084%,29.998779%,29.998779%);stroke-opacity:1;stroke-miterlimit:10;" d="M 49.199156 2.133188 L 82.339781 20.543344 " transform="matrix(1,0,0,-1,9.961,32.641)"/>
<path style="fill-rule:nonzero;fill:rgb(59.999084%,29.998779%,29.998779%);fill-opacity:1;stroke-width:1.59404;stroke-linecap:butt;stroke-linejoin:round;stroke:rgb(59.999084%,29.998779%,29.998779%);stroke-opacity:1;stroke-miterlimit:10;" d="M 1.513124 -0.000814705 C -0.376374 0.378624 -2.270422 1.135962 -4.541984 2.460535 C -2.271185 0.756544 -2.272339 -0.757713 -4.540898 -2.460138 C -2.271205 -1.133717 -0.3779 -0.380213 1.513124 -0.000814705 Z M 1.513124 -0.000814705 " transform="matrix(0.87413,-0.48564,-0.48564,-0.87413,90.341,13.18334)"/>
<path style="fill:none;stroke-width:0.79701;stroke-linecap:butt;stroke-linejoin:miter;stroke:rgb(59.999084%,29.998779%,29.998779%);stroke-opacity:1;stroke-miterlimit:10;" d="M 49.742125 0.000375 L 81.796813 0.000375 " transform="matrix(1,0,0,-1,9.961,32.641)"/>
<path style="fill-rule:nonzero;fill:rgb(59.999084%,29.998779%,29.998779%);fill-opacity:1;stroke-width:1.59404;stroke-linecap:butt;stroke-linejoin:round;stroke:rgb(59.999084%,29.998779%,29.998779%);stroke-opacity:1;stroke-miterlimit:10;" d="M 1.514967 0.000375 C -0.379564 0.379281 -2.270189 1.137094 -4.543626 2.461313 C -2.270189 0.758188 -2.270189 -0.757437 -4.543626 -2.460562 C -2.270189 -1.136344 -0.379564 -0.378531 1.514967 0.000375 Z M 1.514967 0.000375 " transform="matrix(1,0,0,-1,89.44597,32.641)"/>
<path style="fill:none;stroke-width:0.79701;stroke-linecap:butt;stroke-linejoin:miter;stroke:rgb(59.999084%,29.998779%,29.998779%);stroke-opacity:1;stroke-miterlimit:10;" d="M 27.062438 -22.679312 L 63.652281 -22.679312 " transform="matrix(1,0,0,-1,9.961,32.641)"/>
<path style="fill-rule:nonzero;fill:rgb(59.999084%,29.998779%,29.998779%);fill-opacity:1;stroke-width:1.59404;stroke-linecap:butt;stroke-linejoin:round;stroke:rgb(59.999084%,29.998779%,29.998779%);stroke-opacity:1;stroke-miterlimit:10;" d="M 1.513506 -0.0006125 C -0.377119 0.378294 -2.27165 1.136106 -4.541181 2.460325 C -2.27165 0.7572 -2.27165 -0.758425 -4.541181 -2.46155 C -2.27165 -1.137331 -0.377119 -0.379519 1.513506 -0.0006125 Z M 1.513506 -0.0006125 " transform="matrix(1,0,0,-1,71.3029,55.3197)"/>
<g clip-path="url(#clip5)" clip-rule="nonzero">
<path style="fill:none;stroke-width:1.19553;stroke-linecap:butt;stroke-linejoin:miter;stroke:rgb(19.999695%,59.999084%,39.99939%);stroke-opacity:1;stroke-dasharray:2.98883,2.98883;stroke-miterlimit:10;" d="M 40.550719 32.043344 L 4.808531 32.043344 C -3.015688 32.043344 -9.363344 25.695688 -9.363344 17.871469 L -9.363344 -17.870719 C -9.363344 -25.698844 -3.015688 -32.042594 4.808531 -32.042594 L 40.550719 -32.042594 C 48.378844 -32.042594 54.722594 -25.698844 54.722594 -17.870719 L 54.722594 17.871469 C 54.722594 25.695688 48.378844 32.043344 40.550719 32.043344 Z M 40.550719 32.043344 " transform="matrix(1,0,0,-1,9.961,32.641)"/>
</g>
<g clip-path="url(#clip6)" clip-rule="nonzero">
<path style="fill:none;stroke-width:1.19553;stroke-linecap:butt;stroke-linejoin:miter;stroke:rgb(19.999695%,59.999084%,39.99939%);stroke-opacity:1;stroke-dasharray:2.98883,2.98883;stroke-miterlimit:10;" d="M 104.054625 32.043344 L 72.8515 32.043344 C 65.023375 32.043344 58.675719 25.695688 58.675719 17.871469 L 58.675719 -17.870719 C 58.675719 -25.698844 65.023375 -32.042594 72.8515 -32.042594 L 104.054625 -32.042594 C 111.88275 -32.042594 118.2265 -25.698844 118.2265 -17.870719 L 118.2265 17.871469 C 118.2265 25.695688 111.88275 32.043344 104.054625 32.043344 Z M 104.054625 32.043344 " transform="matrix(1,0,0,-1,9.961,32.641)"/>
</g>
</g>
</svg>
